<?xml version="1.0" encoding="UTF-8" standalone="no"?>
<svg
   height="48"
   viewBox="0 -960 960 960"
   width="48"
   version="1.1"
   id="svg1"
   sodipodi:docname="icon_server_error_lgiht.svg"
   inkscape:version="1.3.2 (091e20e, 2023-11-25, custom)"
   xmlns:inkscape="http://www.inkscape.org/namespaces/inkscape"
   xmlns:sodipodi="http://sodipodi.sourceforge.net/DTD/sodipodi-0.dtd"
   xmlns="http://www.w3.org/2000/svg"
   xmlns:svg="http://www.w3.org/2000/svg">
  <defs
     id="defs1" />
  <sodipodi:namedview
     id="namedview1"
     pagecolor="#ffffff"
     bordercolor="#000000"
     borderopacity="0.25"
     inkscape:showpageshadow="2"
     inkscape:pageopacity="0.0"
     inkscape:pagecheckerboard="0"
     inkscape:deskcolor="#d1d1d1"
     inkscape:zoom="24.4375"
     inkscape:cx="24"
     inkscape:cy="24"
     inkscape:window-width="3440"
     inkscape:window-height="1369"
     inkscape:window-x="-8"
     inkscape:window-y="-8"
     inkscape:window-maximized="1"
     inkscape:current-layer="svg1" />
  <path
     d="M479.982-301.538q9.787 0 15.633-5.829 5.847-5.829 5.847-15.615 0-9.787-5.829-15.633-5.829-5.847-15.615-5.847-9.787 0-15.633 5.829-5.847 5.829-5.847 15.616 0 9.786 5.829 15.632 5.829 5.847 15.615 5.847Zm-13.905-129.154h30.769v-246.077h-30.769v246.077ZM480.4-120q-75.176 0-140.294-28.339-65.119-28.34-114.247-77.422-49.127-49.082-77.493-114.213Q120-405.106 120-480.366q0-74.491 28.339-140.069 28.34-65.578 77.422-114.206 49.082-48.627 114.213-76.993Q405.106-840 480.366-840q74.491 0 140.069 28.339 65.578 28.34 114.206 76.922 48.627 48.582 76.993 114.257Q840-554.806 840-480.4q0 75.176-28.339 140.294-28.34 65.119-76.922 114.062-48.582 48.944-114.257 77.494Q554.806-120 480.4-120Zm.1-30.769q136.885 0 232.808-96.039 95.923-96.038 95.923-233.692 0-136.885-95.736-232.808Q617.76-809.231 480-809.231q-137.154 0-233.192 95.736Q150.769-617.76 150.769-480q0 137.154 96.039 233.192 96.038 96.039 233.692 96.039ZM480-480Z"
     id="path1"
     style="fill:#ffffff;fill-opacity:1" />
</svg>
