<?xml version="1.0" encoding="UTF-8" standalone="no"?>
<svg
   height="48"
   viewBox="0 -960 960 960"
   width="48"
   version="1.1"
   id="svg1"
   sodipodi:docname="icon_configuration_light.svg"
   inkscape:version="1.3.2 (091e20e, 2023-11-25, custom)"
   xmlns:inkscape="http://www.inkscape.org/namespaces/inkscape"
   xmlns:sodipodi="http://sodipodi.sourceforge.net/DTD/sodipodi-0.dtd"
   xmlns="http://www.w3.org/2000/svg"
   xmlns:svg="http://www.w3.org/2000/svg">
  <defs
     id="defs1" />
  <sodipodi:namedview
     id="namedview1"
     pagecolor="#ffffff"
     bordercolor="#000000"
     borderopacity="0.25"
     inkscape:showpageshadow="2"
     inkscape:pageopacity="0.0"
     inkscape:pagecheckerboard="0"
     inkscape:deskcolor="#d1d1d1"
     inkscape:zoom="24.4375"
     inkscape:cx="24"
     inkscape:cy="24"
     inkscape:window-width="3440"
     inkscape:window-height="1369"
     inkscape:window-x="-8"
     inkscape:window-y="-8"
     inkscape:window-maximized="1"
     inkscape:current-layer="svg1" />
  <path
     d="M407.769-407.769V-552H552v144.231H407.769Zm30.769-30.769h82.693v-82.693h-82.693v82.693ZM380-178.461V-240h-84.616q-23.057 0-39.221-16.163Q240-272.327 240-295.384V-380h-61.539v-30.769H240v-140.154h-61.539v-30.769H240v-84.616q0-23.058 16.163-39.221 16.164-16.164 39.221-16.164H380v-59.846h30.769v59.846h140.154v-59.846h30.769v59.846h84.616q23.058 0 39.221 16.164 16.164 16.163 16.164 39.221v84.616h59.846v30.769h-59.846v140.154h59.846V-380h-59.846v84.616q0 23.057-16.164 39.221Q689.366-240 666.308-240h-84.616v61.539h-30.769V-240H410.769v61.539H380Zm286.308-92.308q9.231 0 16.923-7.692 7.692-7.693 7.692-16.923v-370.924q0-9.231-7.692-16.923-7.692-7.692-16.923-7.692H295.384q-9.23 0-16.923 7.692-7.692 7.692-7.692 16.923v370.924q0 9.23 7.692 16.923 7.693 7.692 16.923 7.692h370.924ZM480-480Z"
     id="path1"
     style="fill:#ffffff;fill-opacity:1" />
</svg>
