<?xml version="1.0" encoding="UTF-8" standalone="no"?>
<svg
   height="24"
   viewBox="0 -960 960 960"
   width="24"
   version="1.1"
   id="svg1"
   sodipodi:docname="icon_load_light.svg"
   inkscape:version="1.3.2 (091e20e, 2023-11-25, custom)"
   xmlns:inkscape="http://www.inkscape.org/namespaces/inkscape"
   xmlns:sodipodi="http://sodipodi.sourceforge.net/DTD/sodipodi-0.dtd"
   xmlns="http://www.w3.org/2000/svg"
   xmlns:svg="http://www.w3.org/2000/svg">
  <defs
     id="defs1" />
  <sodipodi:namedview
     id="namedview1"
     pagecolor="#ffffff"
     bordercolor="#000000"
     borderopacity="0.25"
     inkscape:showpageshadow="2"
     inkscape:pageopacity="0.0"
     inkscape:pagecheckerboard="0"
     inkscape:deskcolor="#d1d1d1"
     inkscape:zoom="48.875"
     inkscape:cx="12"
     inkscape:cy="12"
     inkscape:window-width="3440"
     inkscape:window-height="1369"
     inkscape:window-x="-8"
     inkscape:window-y="-8"
     inkscape:window-maximized="1"
     inkscape:current-layer="svg1" />
  <path
     d="M480-80q-82 0-155-31.5t-127.5-86Q143-252 111.5-325T80-480q0-83 31.5-155.5t86-127Q252-817 325-848.5T480-880q17 0 28.5 11.5T520-840q0 17-11.5 28.5T480-800q-133 0-226.5 93.5T160-480q0 133 93.5 226.5T480-160q133 0 226.5-93.5T800-480q0-17 11.5-28.5T840-520q17 0 28.5 11.5T880-480q0 82-31.5 155t-86 127.5q-54.5 54.5-127 86T480-80Z"
     id="path1"
     style="fill:#ffffff;fill-opacity:1" />
</svg>
