<?xml version="1.0" encoding="UTF-8" standalone="no"?>
<svg
   height="48"
   viewBox="0 -960 960 960"
   width="48"
   version="1.1"
   id="svg1"
   sodipodi:docname="icon_server_online_light.svg"
   inkscape:version="1.3.2 (091e20e, 2023-11-25, custom)"
   xmlns:inkscape="http://www.inkscape.org/namespaces/inkscape"
   xmlns:sodipodi="http://sodipodi.sourceforge.net/DTD/sodipodi-0.dtd"
   xmlns="http://www.w3.org/2000/svg"
   xmlns:svg="http://www.w3.org/2000/svg">
  <defs
     id="defs1" />
  <sodipodi:namedview
     id="namedview1"
     pagecolor="#ffffff"
     bordercolor="#000000"
     borderopacity="0.25"
     inkscape:showpageshadow="2"
     inkscape:pageopacity="0.0"
     inkscape:pagecheckerboard="0"
     inkscape:deskcolor="#d1d1d1"
     inkscape:zoom="24.4375"
     inkscape:cx="24"
     inkscape:cy="24"
     inkscape:window-width="3440"
     inkscape:window-height="1369"
     inkscape:window-x="-8"
     inkscape:window-y="-8"
     inkscape:window-maximized="1"
     inkscape:current-layer="svg1" />
  <path
     d="M480-146.231q-22.923 0-39.923-17-17-17-17-39.923 0-22.923 17-39.923 17-17 39.923-17 22.923 0 39.923 17 17 17 17 39.923 0 22.923-17 39.923-17 17-39.923 17ZM243.538-350.846l-30.692-30.693q56.923-57.692 123.551-87.307 66.628-29.616 143.731-29.616t143.603 29.616q66.5 29.615 123.423 86.538l-30.692 31.462q-51.77-51.769-111.847-77.385Q544.538-453.846 480-453.846t-124.615 25.615q-60.077 25.616-111.847 77.385Zm-169-169.769-31.461-31.462q84.538-85 196.115-135.693Q350.769-738.462 480-738.462t240.808 50.692q111.577 50.693 196.115 135.693l-31.461 31.462q-81.847-80.154-184.808-126.693Q597.692-693.846 480-693.846t-220.654 46.538Q156.385-600.769 74.538-520.615Z"
     id="path1"
     style="fill:#ffffff;fill-opacity:1" />
</svg>
