<?xml version="1.0" encoding="UTF-8" standalone="no"?>
<svg
   height="48"
   viewBox="0 -960 960 960"
   width="48"
   version="1.1"
   id="svg1"
   sodipodi:docname="library_add_FILL0_wght200_GRAD0_opsz48_light.svg"
   inkscape:version="1.3.2 (091e20e, 2023-11-25, custom)"
   xmlns:inkscape="http://www.inkscape.org/namespaces/inkscape"
   xmlns:sodipodi="http://sodipodi.sourceforge.net/DTD/sodipodi-0.dtd"
   xmlns="http://www.w3.org/2000/svg"
   xmlns:svg="http://www.w3.org/2000/svg">
  <defs
     id="defs1" />
  <sodipodi:namedview
     id="namedview1"
     pagecolor="#ffffff"
     bordercolor="#000000"
     borderopacity="0.25"
     inkscape:showpageshadow="2"
     inkscape:pageopacity="0.0"
     inkscape:pagecheckerboard="0"
     inkscape:deskcolor="#d1d1d1"
     inkscape:zoom="24.4375"
     inkscape:cx="24"
     inkscape:cy="24"
     inkscape:window-width="3440"
     inkscape:window-height="1369"
     inkscape:window-x="-8"
     inkscape:window-y="-8"
     inkscape:window-maximized="1"
     inkscape:current-layer="svg1" />
  <path
     d="M515.385-409.538h30.769v-125.846H672v-30.77H546.154V-692h-30.769v125.846H389.538v30.77h125.847v125.846Zm-218.462 148q-23.058 0-39.221-16.164-16.164-16.163-16.164-39.221v-467.693q0-23.057 16.164-39.221Q273.865-840 296.923-840h467.693q23.057 0 39.221 16.163Q820-807.673 820-784.616v467.693q0 23.058-16.163 39.221-16.164 16.164-39.221 16.164H296.923Zm0-30.769h467.693q9.23 0 16.923-7.693 7.692-7.692 7.692-16.923v-467.693q0-9.23-7.692-16.923-7.693-7.692-16.923-7.692H296.923q-9.231 0-16.923 7.692-7.692 7.693-7.692 16.923v467.693q0 9.231 7.692 16.923 7.692 7.693 16.923 7.693ZM195.384-160q-23.057 0-39.221-16.163Q140-192.326 140-215.384v-498.462h30.769v498.462q0 9.231 7.692 16.923 7.693 7.692 16.923 7.692h498.463V-160H195.384Zm76.924-649.231v516.924-516.924Z"
     id="path1"
     style="fill:#ffffff;fill-opacity:1" />
</svg>
